# xmcd
#
# Track frame offsets:
#	150
#	14525
#	32528
#	48023
#	66608
#	80530
#	98985
#	116660
#	136353
#	154655
#
# Disc length: 2277 seconds
#
# Revision: 0
# Processed by: cddbd v1.5.2PL0 Copyright (c) Steve Scherf et al.
# Submitted via: audiograbber 1.83.01
#
DISCID=8008e30a
DTITLE=Little Texas - Big Time
DYEAR=1993
DGENRE=Country
TTITLE0=Forget About Forgetting You
TTITLE1=What Might Have Been
TTITLE2=Only Thing I'm Sure Of
TTITLE3=My Love
TTITLE4=Stop On A Dime
TTITLE5=God Blessed Texas
TTITLE6=Love And Learn
TTITLE7=My Town
TTITLE8=This Time It's Real
TTITLE9=Cutoff Jeans
EXTD=
EXTT0=
EXTT1=
EXTT2=
EXTT3=
EXTT4=
EXTT5=
EXTT6=
EXTT7=
EXTT8=
EXTT9=
PLAYORDER=
